<svg xmlns="http://www.w3.org/2000/svg" viewBox="0 0 1000 1000">
  <g class="cactus-body">
    <path d="M590.8,466.8c0,88-7.5,171.8-21.1,237.5h44.8c27.9-64.8,43.2-148.9,43.2-237.5   c0-92.5-16.5-171.3-47.6-227.9c-19.8-36-44.8-60.8-72.5-72.5c10.9,15.2,20.6,37.5,28.6,66.6C582.3,291.4,590.8,372.2,590.8,466.8z"/>
    <path d="M574.8,466.8c0-93.2-8.3-172.6-24.1-229.6c-11.8-42.8-27.2-70-43.1-76.9v544h45.7   C567.2,639.3,574.8,555.3,574.8,466.8z"/>
    <path d="M491.7,704.3v-544c-15.9,6.9-31.3,34.1-43.1,76.9c-15.7,57.1-24.1,136.5-24.1,229.6   c0,88.4,7.6,172.4,21.5,237.5H491.7z"/>
    <path d="M429.7,704.3c-13.6-65.6-21.1-149.4-21.1-237.5c0-94.6,8.5-175.4,24.6-233.9c8-29,17.6-51.4,28.6-66.6   c-27.7,11.8-52.6,36.5-72.5,72.5c-31.2,56.6-47.6,135.4-47.6,227.9c0,88.6,15.3,172.7,43.2,237.5H429.7z"/>
  </g>
  <g class="pot">
    <path d="M670,720.3H329.4c-3.7,0-7.3,1.6-9.7,4.5c-2.4,2.9-3.4,6.6-2.8,10.3l0.1,0.4c1,6.1,6.3,10.5,12.4,10.5H670   c6.2,0,11.4-4.4,12.4-10.5l0.1-0.4c0.6-3.7-0.4-7.4-2.8-10.3C677.3,721.9,673.8,720.3,670,720.3z"/>
    <polygon points="375.4,896 624,896 646.9,762 352.6,762  "/>
  </g>
  <g class="spikes">
    <path d="M340.1,234.1l31.1,9c1.9-3.7,3.8-7.4,5.7-11c0.6-1.2,1.3-2.3,1.9-3.5l-34.4-9.9c-4.2-1.2-8.7,1.2-9.9,5.5   C333.4,228.5,335.8,232.9,340.1,234.1z"/>
    <path d="M365.5,189.3l27.9,16.9c3.2-4.4,6.6-8.6,10-12.6l-29.6-17.9c-3.8-2.3-8.7-1.1-11,2.7   C360.5,182.1,361.7,187.1,365.5,189.3z"/>
    <path d="M421.3,175.5c4.1-3.6,8.3-6.8,12.6-9.8l-22.8-30c-2.7-3.5-7.7-4.2-11.2-1.5c-3.5,2.7-4.2,7.7-1.5,11.2   L421.3,175.5z"/>
    <path d="M472.3,146.5l15-6.4l-16.5-24c-2.5-3.6-7.5-4.6-11.1-2.1c-3.6,2.5-4.6,7.5-2.1,11.1L472.3,146.5z"/>
    <path d="M535.1,114.4c1.6-4.1-0.4-8.8-4.5-10.4c-4.1-1.6-8.8,0.4-10.4,4.5l-12,30l14.7,6.3L535.1,114.4z"/>
    <path d="M591.4,147.3c3.8-2.3,4.9-7.2,2.6-11c-2.3-3.8-7.2-4.9-11-2.6l-35.2,21.7c5.4,2.6,10.7,5.6,15.8,9   L591.4,147.3z"/>
    <path d="M595.7,193.2l43.8-21c4-1.9,5.7-6.7,3.8-10.7c-1.9-4-6.7-5.7-10.7-3.8L584.1,181   C588.1,184.8,592,188.8,595.7,193.2z"/>
    <path d="M622.5,232.1c1.9,3.5,3.8,7,5.6,10.6l25.2-8.7c4.2-1.4,6.4-6,4.9-10.2s-6-6.4-10.2-4.9l-27.6,9.6   C621.1,229.6,621.8,230.9,622.5,232.1z"/>
    <path d="M647.6,291.2l43.7-3.1c4.4-0.3,7.7-4.1,7.4-8.6c-0.3-4.4-4.2-7.7-8.6-7.4l-47.9,3.4   C644.1,280.7,645.9,285.9,647.6,291.2z"/>
    <path d="M698.6,322.8c-0.7-4.4-4.8-7.4-9.1-6.7l-33.5,5.1c1.2,5.1,2.4,10.4,3.5,15.6l32.4-5   C696.3,331.2,699.3,327.2,698.6,322.8z"/>
    <path d="M689.6,380.7c0.4,0,0.7,0.1,1.1,0.1c3.9,0,7.4-2.9,7.9-6.9c0.6-4.4-2.5-8.4-6.9-9l-27.8-3.7   c0.9,5.4,1.7,10.9,2.4,16.5L689.6,380.7z"/>
    <path d="M669.1,402.9c0.5,5.3,0.9,10.6,1.2,16H698c4.4,0,8-3.6,8-8s-3.6-8-8-8H669.1z"/>
    <path d="M699.8,456.1l-28,2.2c0,2.8,0,5.7,0,8.5c0,2.5,0,5,0,7.5l29.2-2.3c4.4-0.4,7.7-4.2,7.3-8.6   C708.1,459,704.2,455.7,699.8,456.1z"/>
    <path d="M670.4,514.3c-0.3,5.6-0.7,11.1-1.2,16.6l26.1,9.5c0.9,0.3,1.8,0.5,2.7,0.5c3.3,0,6.3-2,7.5-5.3   c1.5-4.2-0.6-8.7-4.8-10.3L670.4,514.3z"/>
    <path d="M703.5,589.4l-39.1-15.9c-0.8,5.5-1.6,10.9-2.6,16.2l35.7,14.5c1,0.4,2,0.6,3,0.6c3.2,0,6.2-1.9,7.4-5   C709.5,595.7,707.6,591,703.5,589.4z"/>
    <path d="M682.5,621.6l-26.1-3.7c-1.1,5.3-2.4,10.5-3.6,15.6l27.5,3.9c0.4,0.1,0.8,0.1,1.1,0.1   c3.9,0,7.3-2.9,7.9-6.9C689.9,626.2,686.8,622.2,682.5,621.6z"/>
    <path d="M676.6,662.2l-29.7-6.9c-1.5,5.2-3.1,10.3-4.7,15.3l30.7,7.1c0.6,0.1,1.2,0.2,1.8,0.2   c3.6,0,6.9-2.5,7.8-6.2C683.5,667.5,680.9,663.2,676.6,662.2z"/>
    <path d="M330.8,272l24.3,9.3c1.8-5.1,3.7-10.1,5.6-15l-24.2-9.3c-4.1-1.6-8.8,0.5-10.3,4.6S326.7,270.4,330.8,272z"/>
    <path d="M308.7,327.5h33.2c1.2-5.4,2.6-10.8,4-16h-37.2c-4.4,0-8,3.6-8,8S304.3,327.5,308.7,327.5z"/>
    <path d="M319.5,648.4c1.6,1.8,3.8,2.8,6.1,2.8c1.9,0,3.7-0.6,5.2-2l16.3-14.1c-1.4-5.8-2.8-11.7-4.1-17.6   l-22.7,19.7C316.9,640,316.6,645,319.5,648.4z"/>
    <path d="M335.8,578.1l-30.9,17.1c-3.9,2.1-5.3,7-3.1,10.9c1.5,2.6,4.2,4.1,7,4.1c1.3,0,2.6-0.3,3.9-1l25.9-14.3   C337.6,589.3,336.6,583.7,335.8,578.1z"/>
    <path d="M331.7,546.6c-0.6-5.9-1.2-11.9-1.7-17.9c-0.2,0.1-0.5,0.2-0.7,0.4l-36.3,23.4c-3.7,2.4-4.8,7.3-2.4,11.1   c1.5,2.4,4.1,3.7,6.7,3.7c1.5,0,3-0.4,4.3-1.3L331.7,546.6z"/>
    <path d="M297.4,497.9c1,0,1.9-0.2,2.9-0.5l27.5-10.7c-0.1-5.7-0.2-11.4-0.3-17.1l-33,12.8   c-4.1,1.6-6.2,6.2-4.6,10.4C291.2,496,294.2,497.9,297.4,497.9z"/>
    <path d="M297.4,458.9c0.9,0,1.8-0.2,2.7-0.5l27.6-10c0.1-5.8,0.3-11.6,0.6-17.2l-33.7,12.2   c-4.2,1.5-6.3,6.1-4.8,10.2C291.1,456.9,294.1,458.9,297.4,458.9z"/>
    <path d="M301,380.5c-1.2,4.3,1.3,8.7,5.6,9.8l24.2,6.6c0.5-5.4,1.1-10.8,1.8-16.1l-21.8-6   C306.6,373.7,302.2,376.2,301,380.5z"/>
  </g>
  <!--Attribution, not visible, don't color me!-->
  <text x="0" y="1015" fill="#000000" font-size="5px" font-weight="bold" font-family="'Helvetica Neue', Helvetica, Arial-Unicode, Arial, Sans-serif">Created by Alvaro Cabrera</text><text x="0" y="1020" fill="#000000" font-size="5px" font-weight="bold" font-family="'Helvetica Neue', Helvetica, Arial-Unicode, Arial, Sans-serif">from the Noun Project</text></svg>