<svg xmlns="http://www.w3.org/2000/svg" viewBox="0 0 100 100">
  <path class="outline" style="fill: none;stroke: #000;stroke-miterlimit: 10;stroke-width: 3px" d="M91.39,85.35h-.06a2.31,2.31,0,0,1-2.3-2.3l0-6.14a5,5,0,0,0-5-5h0a5,5,0,0,0-5,5v4.12a2.76,2.76,0,1,1-5.51,0V75.36a4.52,4.52,0,0,0-2.93-4.23,4.46,4.46,0,0,0-1.59-.29,4.51,4.51,0,0,0-4.5,4.52v4.37a3.66,3.66,0,1,1-7.28,0v-1a5.67,5.67,0,1,0-11.33,0v9.58a1.6,1.6,0,0,1-1.61,1.6h0a1.6,1.6,0,0,1-1.6-1.6V72a4.74,4.74,0,0,0-3.53-4.58A4.63,4.63,0,0,0,38,67.27,4.74,4.74,0,0,0,33.27,72V77A2.55,2.55,0,0,1,31,79.48h-.23A2.54,2.54,0,0,1,28.18,77V65.58a3.88,3.88,0,0,0-3.63-4.09,3.88,3.88,0,0,0-3.64,4.09v1.75a3.88,3.88,0,0,1-3.63,4.09,3.88,3.88,0,0,1-3.64-4.09v-1.5A3.88,3.88,0,0,0,10,61.74c-2,0-3.63-1.4-3.63-4.09,0-18.12,9.6-37.29,25.85-47.38A7.25,7.25,0,0,1,36,9.19a7.17,7.17,0,0,1,4.63,1.69c1.09.91,2.68,4.34,4.24,5.54a266.79,266.79,0,0,1,44.43,43.7,19.31,19.31,0,0,1,4.3,12.12V83A2.3,2.3,0,0,1,91.39,85.35Z"/>
  <g class="pepperoni">
    <path d="M78.19,59.64c2-2,2.16-4.42.35-6.23a6.24,6.24,0,0,0-4.24-1.79,4.1,4.1,0,0,0-3,1.16c-2.7,2.7-1.36,4.85-.32,5.89a6.87,6.87,0,0,0,4.5,2A3.72,3.72,0,0,0,78.19,59.64Z"/>
    <path d="M60.42,58.21a4,4,0,0,0-2.84,1.26,6.33,6.33,0,0,0-1.7,3.34A4.27,4.27,0,0,0,57,66.68a4.63,4.63,0,0,0,3.16,1.59A3.88,3.88,0,0,0,62.85,67c1.95-2,2.88-5.26,1-7.18A4.86,4.86,0,0,0,60.42,58.21Z"/>
    <path d="M37.08,28.09a10.26,10.26,0,0,0-1.22,6.05,6.55,6.55,0,0,0,3.7,5,10.2,10.2,0,0,0,4.6,1c3.67,0,6.91-1.71,8.24-4.35A9.13,9.13,0,0,0,53.52,30a6.51,6.51,0,0,0-3.76-4.67,11.67,11.67,0,0,0-5.21-1.2C41.12,24.15,38.33,25.62,37.08,28.09Z"/>
    <path d="M51.39,60.59a6.21,6.21,0,0,0-2.66-8.68,7.81,7.81,0,0,0-3.55-.86,6.32,6.32,0,0,0-5.77,3.3,6,6,0,0,0-.09,5.09A7.67,7.67,0,0,0,43,63.29a6.86,6.86,0,0,0,3.12.8A5.9,5.9,0,0,0,51.39,60.59Z"/>
  </g>

  <path class="crust" d="M30.85,30.05C32,27,36,23.79,42.17,21.12a1.66,1.66,0,0,0,1-2,1.62,1.62,0,0,0-2.18-1C36,20.27,29.62,23.89,27.81,29c-.84,2.37-2.68,4.67-4.46,6.89a25,25,0,0,0-3.9,5.84,11.2,11.2,0,0,0-.76,4.81,6.72,6.72,0,0,1-1,4.22c-2.6,4.46-1.5,7.2-1.36,7.5l.06.33a1.75,1.75,0,0,0,2.18,1.36l.08,0a1.76,1.76,0,0,0,1.24-2,8.06,8.06,0,0,1,.59-5.49,9.86,9.86,0,0,0,1.41-5.9,8.07,8.07,0,0,1,.52-3.56,23.17,23.17,0,0,1,3.43-5C27.72,35.56,29.82,32.94,30.85,30.05Z"/>

  <g class="mushrooms" style="fill: none;stroke: #000;stroke-miterlimit: 10;stroke-width: 2px">
    <path d="M65.82,48.31A5.7,5.7,0,0,0,67.69,47a3.09,3.09,0,0,0,1-2.46,6.38,6.38,0,0,0-2.46-4.19,8.52,8.52,0,0,0-5-1.41,10,10,0,0,0-4.64,1c-2.39,1.34-5.72,5.1-4.51,9.48a4.91,4.91,0,0,0,4.44,3.68,3.37,3.37,0,0,0,1.66-.43,5.76,5.76,0,0,0,.73-.48,3.17,3.17,0,0,0,1.87,1.68,2.68,2.68,0,0,0,.76.1,6.86,6.86,0,0,0,4.94-3.11C66.78,50.12,66.48,49.36,65.82,48.31Z"/>
    <path d="M39.28,49.22a8,8,0,0,0-4.74-8.59,10.61,10.61,0,0,0-3.91-.78,5.84,5.84,0,0,0-4.42,1.69c-1.12,1.21-3.56,4.28-2.11,6.68a4.28,4.28,0,0,0,2.32,2,1.87,1.87,0,0,0,.14,1.37,5.85,5.85,0,0,0,4.36,2.43h0a2.83,2.83,0,0,0,1.25-.28,2.94,2.94,0,0,0,1-.79,4.18,4.18,0,0,0,1.61.45,5.59,5.59,0,0,0,.57,0C38.49,53.47,39,50.7,39.28,49.22Z"/>
  </g>

  <g class="peppers">
    <path d="M85,63.51a1.61,1.61,0,0,0-1.38-1.81c-4.58-.6-6.84,1-7.86,2.12a1.7,1.7,0,0,0-.17,2h0a1.74,1.74,0,0,0,2.57.44,6.56,6.56,0,0,1,5-1.4A1.6,1.6,0,0,0,85,63.51Z"/>
    <path d="M44,44.15a3.61,3.61,0,0,1-.67.09,1.61,1.61,0,0,0,0,3.22c2.27,0,3.8-1.12,3.8-2.79A1.61,1.61,0,0,0,44,44.15Z"/>
    <path d="M87.94,65.57a1.61,1.61,0,0,0-1.53,1.09,2.93,2.93,0,0,1-.67.09,1.6,1.6,0,0,0-1.6,1.61A1.62,1.62,0,0,0,85.75,70c2.27,0,3.8-1.13,3.8-2.8A1.61,1.61,0,0,0,87.94,65.57Z"/>
    <path d="M57.14,36.38a1.62,1.62,0,0,0,1.33-.7,7.23,7.23,0,0,1,1.13-.23,1.61,1.61,0,1,0-.37-3.2c-2.45.28-3.7,1.12-3.7,2.52A1.61,1.61,0,0,0,57.14,36.38Z"/>
    <path d="M34.13,32.13a1.61,1.61,0,0,0-2.28,0,3.71,3.71,0,0,0,0,5.18,1.56,1.56,0,0,0,1.14.47A1.61,1.61,0,0,0,34.13,35a.49.49,0,0,1,0-.62A1.61,1.61,0,0,0,34.13,32.13Z"/>
    <path d="M30,56.14A1.61,1.61,0,0,0,28.53,59a7.14,7.14,0,0,1,2.94,3.54A1.61,1.61,0,0,0,33,63.59a1.52,1.52,0,0,0,.55-.1,1.61,1.61,0,0,0,1-2.07A10.32,10.32,0,0,0,30,56.14Z"/>
    <path d="M51.47,64.54c-1.65.23-4.78,1.55-4.78,4.87a1.62,1.62,0,0,0,3.23,0c0-1.34,1.91-1.66,2-1.68a1.61,1.61,0,0,0-.46-3.19Z"/>
    <path d="M70.83,62.79a1.61,1.61,0,0,0-2.78-1.64c-.89,1.5-1.83,4.57.25,6.65a1.6,1.6,0,0,0,1.14.47,1.64,1.64,0,0,0,1.14-.47,1.61,1.61,0,0,0,0-2.28C69.77,64.72,70.81,62.83,70.83,62.79Z"/>    
  </g>

  <!--Attribution, not visible, don't color me!-->
  <text x="0" y="115" fill="#000000" font-size="5px" font-weight="bold" font-family="'Helvetica Neue', Helvetica, Arial-Unicode, Arial, Sans-serif">Created by HeadsOfBirds</text><text x="0" y="120" fill="#000000" font-size="5px" font-weight="bold" font-family="'Helvetica Neue', Helvetica, Arial-Unicode, Arial, Sans-serif">from the Noun Project</text>
</svg>
